<svg xmlns="http://www.w3.org/2000/svg" viewBox="0 0 512 512" style="height: 512px; width: 512px;"><defs><filter id="shadow"><feFlood flood-color="#c0c0c0" result="flood"></feFlood><feComposite in="flood" in2="SourceGraphic" operator="atop" result="composite"></feComposite><!-- react-text: 7 -->0<!-- /react-text --><feOffset dx="0" dy="10" result="offset"></feOffset><feComposite in="SourceGraphic" in2="offset" operator="over"></feComposite></filter></defs><polygon points="477.7,384,256,512,34.3,384,34.3,128,256,0,477.7,128" fill="#f8e0c9" opacity="0" stroke="#f5a623" stroke-width="0"></polygon><path fill="#ffffff" opacity="1" d="M18 0v.51l101-.104V0H18zm119 0v.387L375 .14V0H137zm256 0v.123L494 .02V0H393zm101 18.02l-101 .103V119h101V18.02zm-119 .12l-238 .247V119h238V18.14zm-256 .266L18 18.51V119h101V18.406zM18 137v110h229V137H18zm247 0v110h229V137H265zM18 265v110h101V265H18zm119 0v110h238V265H137zm256 0v110h101V265H393zM18 393v100.98l229-.236V393H18zm247 0v100.727l229-.237V393H265z" transform="translate(102.4, 102.4) scale(0.6, 0.6) rotate(0, 256, 256)" clip-path="false" filter="url(#shadow)"></path><g font-family="Arial, Helvetica, sans-serif" font-size="120" font-style="normal" font-weight="bold" text-anchor="middle" class="" transform="translate(256,450)" style="touch-action: none;"><text stroke="#f8e0c9" stroke-width="30" opacity="1"></text><text fill="#f31070" opacity="1"></text></g></svg>