<svg xmlns="http://www.w3.org/2000/svg" viewBox="0 0 512 512" style="height: 512px; width: 512px;"><defs><filter id="shadow"><feFlood flood-color="#c0c0c0" result="flood"></feFlood><feComposite in="flood" in2="SourceGraphic" operator="atop" result="composite"></feComposite><!-- react-text: 30 -->0<!-- /react-text --><feOffset result="offset" dy="10"></feOffset><feComposite in="SourceGraphic" in2="offset" operator="over"></feComposite></filter></defs><polygon points="477.7,384,256,512,34.3,384,34.3,128,256,0,477.7,128" fill="#f8e0c9" opacity="0" stroke="#f5a623" stroke-width="0"></polygon><path fill="#ffffff" opacity="1" d="M50 96c-9.972 0-18 8.028-18 18v300c0 9.972 8.028 18 18 18h412c9.972 0 18-8.028 18-18V114c0-9.972-8.028-18-18-18H50zm5 23h402v18H55v-18zm0 32h210v258H55V151zm18 18v222h7.03c.47-24.342 18.315-74.172 47.093-97.889C136.331 300.56 147.615 305 160 305c12.385 0 23.669-4.44 32.877-11.889C221.655 316.828 239.5 366.658 239.97 391H247V169H73zm222 14h146v18H295v-18zm-135 10c20.835 0 39 20.241 39 47s-18.165 47-39 47-39-20.241-39-47 18.165-47 39-47zm135 22h114v18H295v-18zm0 32h50v18h-50v-18zm80 0h66v18h-66v-18zm-16 96h98v18h-98v-18zm-32 32h130v18H327v-18z" transform="translate(102.4, 102.4) scale(0.6, 0.6) rotate(0, 256, 256)" clip-path="false" filter="url(#shadow)"></path><g font-family="Arial, Helvetica, sans-serif" font-size="120" font-style="normal" font-weight="bold" text-anchor="middle" class="" transform="translate(256,450)" style="touch-action: none;"><text stroke="#f8e0c9" stroke-width="30" opacity="1"></text><text fill="#f31070" opacity="1"></text></g></svg>